<svg width="191" height="26" viewBox="0 0 191 26" fill="none" xmlns="http://www.w3.org/2000/svg">
<path d="M31.3024 2.08176C29.5491 2.08176 28.1165 3.53463 28.1165 5.31278V20.3837C28.8221 20.4921 29.485 20.5788 30.1905 20.5788C30.8961 20.5788 31.6017 20.4921 32.3073 20.3837V13.9433H39.0852C39.2349 13.3145 39.2563 12.6856 39.2563 12.0567C39.2563 11.4279 39.2349 10.799 39.0852 10.1702H32.3073V6.78735C32.3073 6.31028 32.6922 5.91996 33.1626 5.91996H39.8977C40.0474 5.26942 40.0901 4.64055 40.0901 3.99001C40.0901 3.36115 40.026 2.71061 39.8977 2.08176H31.3024Z" fill="#fff"></path>
<path d="M42.3566 8.50044V20.3837C43.0622 20.4921 43.725 20.5572 44.4306 20.5572C45.1361 20.5572 45.8631 20.4921 46.5473 20.3837V10.6906C46.9963 10.4521 47.7233 10.3003 48.5999 10.3003C49.1986 10.3003 49.6904 10.3653 50.2035 10.4954C50.9519 9.51962 51.3581 8.21853 51.3795 6.80902C50.5884 6.54881 49.5621 6.4187 48.2792 6.4187C45.35 6.4187 43.276 7.65473 42.3566 8.50044Z" fill="#fff"></path>
<path d="M62.2413 6.98252V16.7407C61.6426 17.0226 60.9584 17.1743 60.1245 17.1743C58.0933 17.1743 57.5587 16.2853 57.5587 14.4421V7.00421C56.8745 6.89578 56.1476 6.83072 55.4847 6.83072C54.7792 6.83072 54.0736 6.89578 53.368 7.00421V15.3745C53.368 18.714 55.1854 20.8824 59.7824 20.8824C62.9896 20.8824 65.3843 19.9066 66.4106 19.3211V7.00421C65.705 6.89578 64.9995 6.83072 64.2939 6.83072C63.6524 6.80904 62.9468 6.8741 62.2413 6.98252Z" fill="#fff"></path>
<path d="M83.0025 7.06925C82.19 6.91746 81.0354 6.87409 80.2657 6.87409C79.667 6.87409 78.9187 6.87409 78.2131 6.96083C77.144 9.04256 75.5404 10.799 73.7444 12.0134V1.71312C73.0174 1.60469 72.3118 1.53964 71.6062 1.53964C70.922 1.53964 70.2378 1.60469 69.5536 1.71312V20.3837C70.302 20.4921 70.9862 20.5572 71.6918 20.5572C72.3973 20.5572 73.1029 20.4921 73.7444 20.3837V16.4587C74.0223 16.3503 74.3003 16.1985 74.621 16.025L78.491 20.4921C79.0042 20.5572 80.1802 20.5788 80.6292 20.5788C81.8907 20.5788 83.2163 20.4054 83.6867 20.2319L77.9351 13.6397C79.7739 11.97 81.4844 9.77984 83.0025 7.06925Z" fill="#fff"></path><path d="M85.5042 6.85238V20.3837C86.2098 20.4921 86.9153 20.5571 87.5782 20.5571C88.3051 20.5571 89.0107 20.4921 89.6949 20.3837V6.85238C88.968 6.74396 88.2624 6.67891 87.5782 6.67891C86.8726 6.67891 86.167 6.74396 85.5042 6.85238Z" fill="#fff"></path>
<path d="M87.5995 0C86.1884 0 85.0765 1.14929 85.0765 2.53712C85.0765 3.92494 86.2311 5.09591 87.5995 5.09591C88.968 5.09591 90.1225 3.92494 90.1225 2.53712C90.1225 1.14929 88.9893 0 87.5995 0Z" fill="#fff"></path>
<path d="M106.907 10.6906C108.275 9.9533 109.152 8.69559 109.152 6.78733C109.152 3.59967 107.035 1.90826 102.609 1.90826C100.364 1.90826 98.6966 2.14679 97.4351 2.38532V20.3403C98.6966 20.5788 100.236 20.7089 102.716 20.7089C107.442 20.7089 109.986 18.6489 109.986 15.0709C109.986 12.7289 108.831 11.3411 106.907 10.6906ZM99.7015 4.05505C100.706 3.94663 101.69 3.90326 102.738 3.90326C105.496 3.90326 106.95 4.92244 106.95 6.78733C106.95 8.76064 105.881 9.93162 103.037 9.93162H99.7015V4.05505V4.05505ZM102.567 18.6706C101.284 18.6706 100.407 18.5838 99.7015 18.4754V12.0133H103.294C106.073 12.0133 107.741 13.0108 107.741 15.201C107.741 17.6731 106.223 18.6706 102.567 18.6706Z" fill="#fff"></path>
<path d="M119.501 6.57048C115.909 6.57048 113.086 9.56297 113.086 13.7264C113.086 18.02 115.823 20.7957 119.693 20.7957C122.173 20.7957 123.82 19.7765 124.889 18.8657C124.739 18.2586 124.204 17.5863 123.649 17.3044C122.922 17.8682 121.895 18.6922 119.714 18.6922C117.298 18.6922 115.609 16.849 115.438 14.3553H125.274C125.359 13.5963 125.38 13.2494 125.38 12.5338C125.402 9.04254 122.9 6.57048 119.501 6.57048ZM115.481 12.4254C115.737 10.3436 117.191 8.60884 119.501 8.60884C122.088 8.60884 123.05 10.6038 123.05 12.4254H115.481Z" fill="#fff"></path><path d="M134.232 6.5705C132.864 6.5705 131.667 6.93914 130.769 7.48126V1.64807C130.405 1.56133 130.02 1.53964 129.635 1.53964C129.272 1.53964 128.908 1.56133 128.502 1.64807L128.481 19.4946C130.255 20.4054 131.902 20.774 133.912 20.774C138.017 20.774 140.968 17.9767 140.968 13.4662C140.989 9.23773 138.102 6.5705 134.232 6.5705ZM133.933 18.6272C132.65 18.6272 131.581 18.3887 130.747 17.9333L130.769 9.67142C131.581 9.10762 132.629 8.76066 133.997 8.76066C137.012 8.76066 138.658 10.8207 138.658 13.5964C138.68 16.719 136.969 18.6272 133.933 18.6272Z" fill="#fff"></path>
<path d="M145.265 1.36615C144.346 1.36615 143.64 2.08175 143.64 2.99251C143.64 3.90326 144.367 4.61886 145.265 4.61886C146.142 4.61886 146.847 3.90326 146.847 2.99251C146.847 2.08175 146.142 1.36615 145.265 1.36615Z" fill="#fff"></path>
<path d="M144.111 6.93913V20.3837C144.495 20.4704 144.902 20.4921 145.265 20.4921C145.629 20.4921 146.014 20.4704 146.398 20.3837V6.93913C146.035 6.85239 145.65 6.83071 145.265 6.83071C144.902 6.80902 144.517 6.85239 144.111 6.93913Z" fill="#fff"></path><path d="M159.719 1.66975V7.22105C158.842 6.78735 157.923 6.59218 156.533 6.59218C152.685 6.59218 149.477 9.36783 149.477 13.7698C149.477 18.2803 152.514 20.774 156.448 20.774C158.479 20.774 160.638 20.1668 161.964 19.4296V1.64807C161.579 1.56133 161.173 1.53964 160.809 1.53964C160.446 1.53964 160.083 1.58301 159.719 1.66975ZM159.719 18.1068C158.714 18.5405 157.645 18.714 156.469 18.6706C153.689 18.6706 151.808 16.784 151.808 13.7048C151.808 10.6472 153.796 8.71729 156.555 8.71729C157.816 8.71729 158.821 8.89077 159.74 9.47626V18.1068H159.719Z" fill="#fff"></path>
<path d="M177.252 16.4587V8.30526C175.905 7.15597 173.959 6.57048 172.035 6.57048C167.951 6.57048 165.086 9.80151 165.086 14.03C165.086 18.5621 167.673 20.7957 171.244 20.7957C173.018 20.7957 174.429 20.1451 175.456 19.1476C175.883 19.8849 176.632 20.3837 177.722 20.6872C178.171 20.427 178.791 19.5813 178.791 18.8007C177.658 18.2152 177.252 17.9116 177.252 16.4587ZM175.007 16.8057C174.323 17.9116 173.018 18.7139 171.522 18.7139C169.127 18.7139 167.416 17.0659 167.416 14.0734C167.416 10.7123 169.234 8.71727 172.035 8.71727C173.382 8.71727 174.28 9.10759 175.007 9.60634V16.8057Z" fill="#fff"></path>
<path d="M185.89 12.3386C183.474 11.9916 182.875 11.4062 182.875 10.3436C182.875 9.28106 183.752 8.56546 185.74 8.56546C187.429 8.56546 188.691 9.02084 189.653 9.62801C190.187 9.15095 190.487 8.54377 190.636 7.89323C189.824 7.19932 188.113 6.54878 185.997 6.54878C182.618 6.54878 180.651 8.32693 180.651 10.6038C180.651 13.3144 182.854 14.2469 185.398 14.5721C187.964 14.8757 188.776 15.5696 188.776 16.6756C188.776 17.8465 187.857 18.7573 185.462 18.7573C183.26 18.7573 182.276 17.9983 181.635 17.4562C181.079 17.8032 180.63 18.367 180.352 19.1042C180.972 19.7114 182.554 20.7957 185.462 20.7957C188.883 20.7957 191 19.1476 191 16.372C191 13.8782 189.033 12.7723 185.89 12.3386Z" fill="#fff"></path>
<path d="M16.8057 2.08174H11.0327V9.12928H16.8057C18.73 9.12928 20.2909 7.5463 20.2909 5.59467C20.2909 3.66473 18.73 2.08174 16.8057 2.08174Z" fill="#fff"></path>
<path d="M16.8057 13.3362H11.0327V20.3837H16.8057C18.73 20.3837 20.2909 18.8007 20.2909 16.8491C20.2909 14.9192 18.73 13.3362 16.8057 13.3362Z" fill="#fff"></path>
<path d="M0 8.67386V26H0.470393C4.06247 26 6.94895 23.0508 6.94895 19.4295V2.10339H6.47856C2.90787 2.08171 0 5.03083 0 8.67386Z" fill="#fff"></path>
</svg>